<svg xmlns="http://www.w3.org/2000/svg" xml:space="preserve" width="103.83" height="109.709" viewBox="0 0 130.99 138.41" shape-rendering="geometricPrecision" text-rendering="geometricPrecision" image-rendering="optimizeQuality" fill-rule="evenodd" clip-rule="evenodd"><defs><style>.fil0{fill:#272624;fill-rule:nonzero}</style></defs><g id="Слой_x0020_1"><g id="_1985715096448"><path class="fil0" d="M30.64 5.39H54.5L33.19 26.38H9.28L30.64 5.39zm53.24 20.99H60.36L80.94 5.39h23.67L83.88 26.38zm15.06 18.55a26.108 26.108 0 0 0-11.24 2.53V30.18l21.45-21.72v38.5a26.421 26.421 0 0 0-10.21-2.03zM87.7 105.24v-9.93a26.17 26.17 0 0 0 7.8 2.26l-7.8 7.67zm36.83 28.14-2.24.88c-.51.2-1.03.3-1.56.3-1.59 0-2.96-.89-3.5-2.26l-9.02-23.03c.1-.02.2-.05.29-.08l9.13-3.57c.1-.04.18-.09.27-.14l9.02 23.03c.74 1.88-.33 4.07-2.39 4.88zm-10.1-30.65-5.54 2.17-.02-.05-3.11-7.95a25.998 25.998 0 0 0 5.54-2.18l3.12 7.95.02.05zm-1.28-13.82c-.51.42-1.05.81-1.6 1.18-.54.36-1.09.7-1.67 1.02-.1.05-.19.11-.29.16-.77.41-1.57.79-2.41 1.12-.93.37-1.88.66-2.84.9-.63.16-1.27.28-1.92.39-.66.1-1.32.17-1.98.22-.42.03-.84.05-1.25.05-.08 0-.15.01-.23.01-4.06 0-7.92-1.06-11.26-2.98-2-1.15-3.82-2.6-5.39-4.31-1.85-2.02-3.34-4.4-4.39-7.06-3.24-8.28-1.24-17.34 4.39-23.5 1.54-1.68 3.34-3.15 5.39-4.32.96-.55 1.96-1.03 3.02-1.45a22.4 22.4 0 0 1 8.23-1.56c3.65 0 7.12.86 10.21 2.41 1.97 1 3.79 2.28 5.39 3.81 2.33 2.23 4.2 4.98 5.44 8.13 3.67 9.38.62 19.76-6.82 25.79zm-30.84 20.05H5.39v-77.2h25.55v41.58l7.1-4.93 5.45 4.93 5.35-5.14 8.32 5.14V31.76h25.15v19.06c-8.7 7.06-12.27 19.2-7.97 30.17 1.72 4.4 4.5 8.12 7.97 10.94v17.03zM2.7 114.35h82.31c.09 0 .18-.01.27-.01.04 0 .07-.01.11-.02.05-.01.1-.01.15-.02.04-.01.08-.02.13-.03l.13-.03c.04-.01.08-.03.12-.04.04-.02.08-.03.12-.05.04-.02.08-.03.11-.05l.12-.06c.04-.02.07-.04.11-.06.04-.02.08-.05.12-.07l.11-.08.1-.07c.04-.04.08-.07.13-.11l.06-.06 15.35-15.09 3.04 7.76-.25.1c-.92.36-1.41 1.35-1.16 2.3.07.25.15.49.24.74l9.52 24.32c1.12 2.86 3.9 4.7 7.08 4.7 1.01 0 2.01-.19 2.97-.57l2.24-.88c4.03-1.58 6.08-6 4.57-9.86l-9.52-24.31c-.09-.24-.2-.48-.32-.71a1.922 1.922 0 0 0-2.41-.9l-.25.1-3.38-8.63c9.4-6.92 13.4-19.55 8.95-30.92-1.89-4.83-5.05-8.85-9.02-11.74V2.71a2.69 2.69 0 0 0-2.69-2.69H29.55c-.03 0-.07 0-.1.01-.05 0-.1 0-.15.01-.05 0-.09.01-.13.02-.04.01-.09.01-.13.02l-.14.03-.12.03c-.05.01-.09.03-.13.05-.04.01-.08.03-.12.04-.04.01-.08.04-.12.05l-.12.06c-.04.02-.08.04-.11.07-.04.02-.08.05-.11.07-.04.03-.08.06-.12.08l-.1.07c-.05.04-.09.08-.13.12-.02.02-.04.04-.06.05L.82 27.18l-.01.01c-.05.05-.1.1-.14.15-.01.02-.03.03-.04.04-.06.07-.11.14-.16.21-.02.04-.05.07-.07.11-.02.04-.05.07-.07.11l-.06.12-.06.12c-.01.04-.03.07-.04.11-.02.05-.04.09-.05.14l-.03.1c-.01.06-.03.11-.04.17-.02.08-.03.16-.04.24v.08c-.01.06-.01.12-.01.19V111.68a2.69 2.69 0 0 0 2.69 2.69z"/><path class="fil0" d="M36.02 103.47H9.61V89.14h26.41v14.33zm.96-16.25H8.65a.96.96 0 0 0-.96.96v16.25c0 .53.43.96.96.96h28.33c.53 0 .96-.43.96-.96V88.18a.96.96 0 0 0-.96-.96z"/><path class="fil0" d="M11.21 101.92h1.51V90.83h-1.51zM32.98 101.92h1.28V90.83h-1.28zM13.82 101.92h1.51V90.83h-1.51zM19.57 101.92h1.52V90.83h-1.52zM24.92 101.92h1.28V90.83h-1.28zM27.11 101.92h1.28V90.83h-1.28zM22.09 101.92h2.11V90.83h-2.11zM16.1 101.92h2.44V90.83H16.1zM29.45 101.92h2.44V90.83h-2.44zM109.15 61.55c1.25 1.31 2.27 2.88 2.97 4.65 1.38 3.52 1.3 7.36-.21 10.82a13.95 13.95 0 0 1-2.76 4.14c-.15.16-.3.31-.46.46a14.132 14.132 0 0 1-4.59 2.91c-.21.08-.42.16-.62.23-1.47.5-2.99.75-4.53.75-.06 0-.12-.01-.18-.01-4.45-.05-8.48-2.15-11.07-5.57-.78-1.03-1.43-2.17-1.92-3.42-1.86-4.76-.96-9.92 1.92-13.72 1.52-2 3.59-3.62 6.09-4.61 1.66-.65 3.39-.98 5.15-.98 3.96 0 7.6 1.61 10.21 4.34zm0-5.04a18.001 18.001 0 0 0-10.21-3.15c-2.24 0-4.45.42-6.56 1.24a17.804 17.804 0 0 0-6 3.87c-.42.41-.81.84-1.19 1.28a18.16 18.16 0 0 0-2.89 4.79c-1.69 4.13-1.87 8.89-.12 13.37.04.09.08.19.12.28 1.19 2.9 3.06 5.36 5.39 7.23 3.04 2.44 6.86 3.86 10.97 3.92h.28c.59 0 1.17-.03 1.75-.09.65-.06 1.3-.17 1.95-.3.76-.16 1.51-.37 2.24-.63.21-.07.41-.15.62-.23.94-.37 1.83-.81 2.68-1.32.37-.22.73-.45 1.09-.7a17.706 17.706 0 0 0 3.58-3.32c.63-.76 1.19-1.58 1.69-2.44.33-.57.63-1.16.89-1.77 1.92-4.4 2.02-9.29.27-13.77-.33-.85-.72-1.66-1.16-2.43-1.36-2.37-3.2-4.36-5.39-5.86z"/></g></g></svg>