<svg xmlns="http://www.w3.org/2000/svg" xml:space="preserve" width="20.563" height="20.563" viewBox="0 0 27.79 27.79" shape-rendering="geometricPrecision" text-rendering="geometricPrecision" image-rendering="optimizeQuality" fill-rule="evenodd" clip-rule="evenodd"><defs><style>.str0,.str1{stroke:#2b2a29;stroke-width:1.02;stroke-miterlimit:22.9256}.fil1{fill:none}</style></defs><g id="Слой_x0020_1"><g id="_2729905019328"><path id="whatsapp.svg" class="str0" d="M20.36 18.68c-.28.79-1.66 1.55-2.28 1.6-.62.06-1.2.28-4.05-.84-3.43-1.35-5.59-4.87-5.76-5.09-.17-.23-1.38-1.83-1.38-3.49 0-1.66.87-2.48 1.18-2.81.31-.34.67-.42.9-.42.22 0 .45 0 .65.01.24.01.51.02.76.58.3.67.96 2.34 1.04 2.5.08.17.14.37.03.59-.11.22-.17.36-.34.56-.17.2-.35.44-.51.59-.17.17-.34.35-.15.69.2.34.87 1.44 1.88 2.34 1.29 1.15 2.38 1.5 2.71 1.67.34.17.53.14.73-.09.2-.22.84-.98 1.07-1.32.22-.34.45-.28.76-.17.31.11 1.97.93 2.3 1.1.34.17.56.25.65.39.08.14.08.82-.2 1.6z" fill="#fff" fill-rule="nonzero"/><circle class="fil1 str0" cx="13.9" cy="13.9" r="13.39"/><path class="fil1 str1" d="M13.34 7.76c3.56.22 5.71 1.83 6.36 4.93M14.7 6.08c3.56.22 5.71 1.83 6.36 4.93"/></g></g></svg>