<svg xmlns="http://www.w3.org/2000/svg" xml:space="preserve" width="94.239" height="111.345" viewBox="0 0 801.26 946.7" shape-rendering="geometricPrecision" text-rendering="geometricPrecision" image-rendering="optimizeQuality" fill-rule="evenodd" clip-rule="evenodd"><defs><style>.fil0{fill:#272624;fill-rule:nonzero}</style></defs><g id="Слой_x0020_1"><g id="_1985715093760"><path class="fil0" d="M758.26 248.16c-4.43 5.26-10.93 8.27-17.82 8.27-2.82 0-5.61-.53-8.22-1.52-2.45-.93-4.75-2.26-6.77-3.97l-38.12-32.14a23.113 23.113 0 0 1-5.03-5.98c-1.76-2.97-2.86-6.3-3.15-9.84-.53-6.2 1.39-12.23 5.4-16.98a23.274 23.274 0 0 1 17.82-8.27c5.48 0 10.8 1.95 15 5.49l38.1 32.14c9.82 8.27 11.06 22.99 2.79 32.81zm-88.44 7.22 8.58-10.18 22.54 19-9.91 11.74a395.584 395.584 0 0 0-21.21-20.56zM376.26 134.59c.1 0 .19.01.28.01h56.39v19.83c-9.35-.67-18.81-1.03-28.33-1.03-9.53 0-18.98.36-28.34 1.03v-19.84zm-34.2-74.16c0-19.01 15.47-34.49 34.48-34.49h57.08c19.02 0 34.48 15.48 34.48 34.49v13.75c0 10.76-4.96 20.38-12.7 26.71-5.95 4.85-13.53 7.78-21.79 7.78h-57.08c-8.51 0-16.3-3.12-22.33-8.26-7.43-6.34-12.15-15.73-12.15-26.23V60.43zM111.25 245.2l17.21 20.41a402.298 402.298 0 0 0-20.48 21.43l-19.25-22.83 22.52-19zm-62.03 11.23c-6.89 0-13.38-3.01-17.81-8.27-8.29-9.82-7.03-24.53 2.78-32.81l38.12-32.14a23.3 23.3 0 0 1 14.98-5.49c6.89 0 13.39 3.01 17.82 8.27 4.01 4.75 5.93 10.78 5.41 16.98-.31 3.53-1.41 6.87-3.15 9.84-1.33 2.23-3 4.26-5.05 5.98l-38.1 32.14a23.49 23.49 0 0 1-6.77 3.97c-2.62.99-5.4 1.52-8.23 1.52zm355.39 653.96c-198.69 0-360.34-161.65-360.34-360.34 0-80.34 26.43-154.63 71.06-214.62 2.72-3.63 5.51-7.23 8.36-10.77a363.182 363.182 0 0 1 37.64-40.19 395.4 395.4 0 0 1 9.73-8.59c49.9-42.57 111.52-71.81 179.29-82.09 4.29-.65 8.62-1.2 12.96-1.7 4.31-.49 8.63-.93 12.97-1.27 9.35-.72 18.81-1.11 28.34-1.11 9.53 0 18.99.39 28.33 1.11 4.35.34 8.67.78 12.97 1.27 4.34.5 8.67 1.05 12.97 1.7 62.62 9.5 120 35.18 167.72 72.61 3.41 2.68 6.75 5.42 10.06 8.21 3.3 2.79 6.56 5.61 9.77 8.53 7.3 6.62 14.32 13.55 21.05 20.73 2.99 3.19 5.92 6.42 8.79 9.7 2.89 3.31 5.7 6.68 8.45 10.09 50.14 61.91 80.23 140.69 80.23 226.39 0 198.69-161.65 360.34-360.34 360.34zm317.85-631.48c5.69 2.24 11.79 3.46 17.98 3.46 14.56 0 28.28-6.38 37.65-17.49 17.49-20.74 14.85-51.86-5.89-69.36l-38.1-32.14a49.266 49.266 0 0 0-31.72-11.6 49.14 49.14 0 0 0-37.64 17.49c-8.48 10.04-12.54 22.8-11.43 35.9.66 7.67 3.08 14.91 6.96 21.3l-10.26 12.16c-54.12-42.75-119.62-71.69-191.13-81.52v-28.07c20.75-9.58 35.18-30.57 35.18-54.88V60.41c0-33.32-27.11-60.42-60.42-60.42h-57.08c-33.3 0-60.41 27.11-60.41 60.42v13.75c0 23.93 13.98 44.65 34.2 54.43v28.52c-76.68 10.54-146.43 43.07-202.69 91.01l-18.26-21.65c3.88-6.39 6.3-13.63 6.96-21.3 1.11-13.1-2.95-25.86-11.42-35.9-9.37-11.12-23.1-17.49-37.65-17.49a49.26 49.26 0 0 0-31.71 11.6l-38.11 32.14c-20.75 17.49-23.39 48.61-5.88 69.36 9.36 11.11 23.09 17.49 37.64 17.49 6.2 0 12.29-1.21 17.98-3.46l23.94 28.38C39.04 374.43 7.96 458.68 7.96 550.05c0 218.71 177.94 396.66 396.65 396.66 218.72 0 396.66-177.94 396.66-396.66 0-96.83-34.91-185.64-92.75-254.59l13.95-16.54z"/><path class="fil0" d="M404.61 824.78c-151.49 0-274.73-123.23-274.73-274.73 0-151.49 123.24-274.73 274.73-274.73s274.73 123.24 274.73 274.73S556.1 824.78 404.61 824.78zm37.4-583.51a312.194 312.194 0 0 0-37.4-2.26c-12.66 0-25.14.78-37.41 2.26C213.27 259.81 93.57 391.21 93.57 550.05c0 171.51 139.53 311.04 311.04 311.04 171.51 0 311.04-139.53 311.04-311.04 0-158.84-119.7-290.25-273.64-308.78z"/><path class="fil0" d="M404.61 375.58c10.02 0 18.15-8.13 18.15-18.16v-57.83c0-10.02-8.13-18.15-18.15-18.15-10.03 0-18.15 8.13-18.15 18.15v57.83c0 10.03 8.11 18.16 18.15 18.16zM404.61 724.53c-10.03 0-18.15 8.12-18.15 18.15v57.82c0 10.03 8.11 18.15 18.15 18.15 10.02 0 18.15-8.13 18.15-18.15v-57.82c0-10.04-8.13-18.15-18.15-18.15zM295.1 324.08c-5.01-8.69-16.11-11.65-24.79-6.65-8.68 5.02-11.66 16.12-6.64 24.8l28.91 50.08c3.37 5.83 9.47 9.08 15.74 9.08 3.08 0 6.2-.78 9.07-2.44 8.67-5.01 11.66-16.11 6.65-24.8l-28.92-50.07zM516.64 707.8c-5.01-8.69-16.11-11.66-24.79-6.64-8.69 5.01-11.66 16.11-6.65 24.79l28.91 50.09c3.37 5.82 9.47 9.08 15.75 9.08 3.07 0 6.2-.79 9.06-2.44 8.68-5.03 11.66-16.12 6.64-24.81l-28.92-50.07zM246.86 438.01l-50.07-28.91c-8.68-5.01-19.79-2.04-24.8 6.64-5.01 8.68-2.04 19.78 6.64 24.8l50.09 28.91c2.86 1.65 5.97 2.44 9.06 2.44 6.27 0 12.38-3.25 15.74-9.08 5.01-8.68 2.04-19.78-6.65-24.8zM630.58 659.56l-50.07-28.92c-8.69-5.01-19.78-2.04-24.81 6.64-5.01 8.68-2.03 19.79 6.64 24.81L612.43 691c2.86 1.66 5.97 2.44 9.06 2.44 6.28 0 12.38-3.26 15.74-9.08 5.02-8.69 2.04-19.78-6.64-24.8zM230.13 550.05c0-10.02-8.13-18.15-18.15-18.15h-57.83c-10.02 0-18.15 8.12-18.15 18.15 0 10.04 8.13 18.15 18.15 18.15h57.83c10.02 0 18.15-8.12 18.15-18.15zM655.07 531.9h-57.83c-10.04 0-18.16 8.12-18.16 18.15 0 10.04 8.13 18.15 18.16 18.15h57.83c10.02 0 18.15-8.12 18.15-18.15 0-10.02-8.13-18.15-18.15-18.15zM228.71 630.64l-50.09 28.92c-8.68 5.01-11.66 16.11-6.64 24.8 3.36 5.82 9.46 9.08 15.73 9.08 3.08 0 6.2-.78 9.07-2.44l50.07-28.91c8.69-5.02 11.66-16.13 6.65-24.81s-16.12-11.64-24.79-6.64zM555.7 462.81c3.36 5.83 9.46 9.08 15.75 9.08 3.07 0 6.2-.78 9.06-2.44l50.07-28.91c8.68-5.02 11.67-16.12 6.64-24.8-5.01-8.69-16.11-11.66-24.79-6.64l-50.09 28.91c-8.67 5.02-11.66 16.12-6.64 24.8zM317.37 701.16c-8.68-5.01-19.79-2.04-24.81 6.64l-28.91 50.07c-5.01 8.69-2.04 19.78 6.64 24.81 2.86 1.64 5.97 2.44 9.06 2.44 6.27 0 12.38-3.26 15.73-9.08L324 725.95c5.01-8.68 2.03-19.78-6.65-24.79zM491.84 398.94c2.86 1.65 5.98 2.44 9.06 2.44 6.28 0 12.38-3.25 15.74-9.08l28.92-50.08c5.01-8.69 2.04-19.78-6.64-24.8-8.68-5-19.78-2.03-24.81 6.65l-28.91 50.07c-5.01 8.68-2.04 19.79 6.65 24.8zM455.2 521.84a58.393 58.393 0 0 0-19.68-20.77l73.17-47.93-53.49 68.7zm-50.6 49.87c-11.93 0-21.65-9.72-21.65-21.66 0-11.93 9.72-21.65 21.65-21.65 11.94 0 21.64 9.71 21.64 21.65 0 11.94-9.7 21.66-21.64 21.66zm171.76-180.97c-4.3-4.66-11.34-5.54-16.64-2.06L401.77 492.17c-30.64 1.48-55.13 26.88-55.13 57.88 0 31.96 26.01 57.95 57.96 57.95 30.33 0 55.27-23.42 57.74-53.11l114.73-147.4a12.978 12.978 0 0 0-.7-16.75z"/></g></g></svg>