<svg xmlns="http://www.w3.org/2000/svg" xml:space="preserve" width="91.897" height="87.306" viewBox="0 0 205.47 195.21" shape-rendering="geometricPrecision" text-rendering="geometricPrecision" image-rendering="optimizeQuality" fill-rule="evenodd" clip-rule="evenodd"><defs><style>.str0{stroke:#e31e24;stroke-width:5.96;stroke-miterlimit:22.9256}.fil0{fill:none}</style></defs><g id="Слой_x0020_1"><g id="_1859327263040"><circle class="fil0 str0" cx="13.33" cy="26.93" r="10.35"/><circle class="fil0 str0" cx="116.13" cy="13.33" r="10.35"/><circle class="fil0 str0" cx="167.65" cy="30.94" r="10.35"/><circle class="fil0 str0" cx="52.86" cy="70.72" r="10.35"/><circle class="fil0 str0" cx="13.73" cy="127.47" r="10.35"/><circle class="fil0 str0" cx="46.41" cy="165.77" r="9.71"/><path class="fil0 str0" d="m23.67 26.93 82.22-12.09M126 16.41l31.88 11.12M164.73 40.86l-4.25 9.64M116.13 23.67l2.61 18.35M109.09 20.91 60.61 63.87M19.44 35.28 45.76 63.2M61.23 76.81l20.33 14.13M47.12 79.33l-27.5 39.63M24.07 127.47l48.36-11.09M20.25 135.5l19.81 22.92M55.29 161.83l11.27-2.4M73.27 187.94l7.07-51.32c3.02-21.92 39.44-25.42 47.79-6.83l17.07 38.04 31.45 3.54c10.72 1.2 12.54 20.4.98 20.48l-49.5.37-19.51-38.52"/><path class="fil0 str0" d="m147.15 153.2 16.58-22.43 37.55 18.04-11.82 20.48M173.49 157.59l3.41 13.65"/><ellipse class="fil0 str0" cx="128.62" cy="81.76" rx="26.82" ry="29.99"/><path class="fil0 str0" d="m98.39 70.3 65.83 22.43"/></g></g></svg>