<svg xmlns="http://www.w3.org/2000/svg" xml:space="preserve" width="90.236" height="108.497" viewBox="0 0 323.87 389.41" shape-rendering="geometricPrecision" text-rendering="geometricPrecision" image-rendering="optimizeQuality" fill-rule="evenodd" clip-rule="evenodd"><defs><style>.fil0{fill:#272624;fill-rule:nonzero}</style></defs><g id="Слой_x0020_1"><g id="_1985836988560"><path class="fil0" d="M27.42 172.06c4.54 7.19 8.15 12.46 9.25 14.05a7.673 7.673 0 0 0 6.31 3.31c2.52 0 4.88-1.23 6.31-3.31.28-.4 5.33-7.74 11.61-17.9 5.67 3.12 11.63 5.98 17.86 8.55-5.31 14.7-8.43 29.29-9.26 43.53H16.51c.88-17 4.69-33.24 10.92-48.23zM42.97 83.5c10.37 0 19.42 5.75 24.15 14.22a27.48 27.48 0 0 1 3.49 13.42c0 .9-.17 2.13-.53 3.66-1.44 6.12-5.87 17.14-14.33 32.24-2.3 4.11-4.91 8.52-7.82 13.21-1.56 2.52-3.21 5.11-4.96 7.78-2.78-4.25-5.31-8.29-7.63-12.13-3.34-5.54-6.21-10.64-8.65-15.28-8.03-15.29-11.37-25.49-11.37-29.47 0-15.24 12.4-27.64 27.64-27.64zm99.15-.25c-8.01 7.8-18.22 18.62-28.49 31.88-12.13 15.65-21.87 31.58-29.1 47.47-5.51-2.28-10.79-4.81-15.81-7.55 11.57-20.31 17.22-34.7 17.22-43.91 0-2.47-.22-4.89-.63-7.25a145.122 145.122 0 0 1 56.8-20.64zM220.78 94c12.06 23.05 27.41 45.53 30.15 49.5a7.668 7.668 0 0 0 6.3 3.31c2.52 0 4.88-1.24 6.31-3.31 1.09-1.57 4.16-6.07 8.23-12.36 3.75 4.23 7.26 8.68 10.5 13.32-11.55 8.67-25.3 15.83-40.55 21.29-7.35-16.94-17.55-33.93-30.48-50.63-10.26-13.25-20.46-24.07-28.47-31.87 13.32 1.87 26.07 5.53 38 10.75zm72.62-42.51c0 10.68-11.78 33.91-24.49 55.22-2.71 4.55-5.47 9.01-8.16 13.24-1.19 1.87-2.36 3.69-3.51 5.45-3.39-5.18-6.96-10.86-10.49-16.72-5.26-8.73-10.42-17.86-14.71-26.38-6.45-12.79-10.96-24.2-10.96-30.81 0-19.94 16.22-36.16 36.16-36.16 19.94 0 36.16 16.22 36.16 36.16zm-38.04 168.8c-.77-13.18-3.5-26.67-8.11-40.27 16.11-5.8 30.73-13.37 43.16-22.51a145.102 145.102 0 0 1 17.94 62.78h-52.99zm31.85 83.62c-12.39-8.59-26.77-15.7-42.52-21.13 6.17-15.9 9.77-31.72 10.67-47.16h52.99c-1.3 24.91-8.86 48.19-21.14 68.29zm-105.65 68.91c8.17-7.77 18.87-18.84 29.64-32.59 11.18-14.28 20.32-28.82 27.35-43.38 14.89 5.03 28.41 11.66 39.98 19.7-23.06 30.15-57.56 51.09-96.97 56.27zM49.85 321.03c.04-.04.09-.06.14-.09 10.75-8.46 23.53-15.56 37.74-21.12 6.82 13.57 15.47 27.11 25.89 40.42 10.77 13.75 21.47 24.83 29.64 32.59-37.43-4.92-70.44-24.05-93.42-51.79zm104.9-228.61v85.33c-19.7-1.01-38.6-4.39-55.79-9.88 15.78-33.88 40.82-61.07 55.79-75.45zm15.33 85.63V92.38c15.32 14.72 41.24 42.91 56.93 77.98-17.74 4.81-37.03 7.46-56.93 7.69zm0 184.46v-76.85c18.64.21 36.74 2.55 53.54 6.8-15.83 31.51-39.29 56.56-53.54 70.05zm-15.33-76.55v76.57c-13.91-13.14-36.59-37.29-52.39-67.75 16.27-4.87 33.97-7.88 52.39-8.82zm-69.92-50.34h69.92v35c-20.7 1-40.64 4.48-58.93 10.17-5.87-14.11-9.97-29.3-10.99-45.17zm145.16 42.69c-18.78-5-39.06-7.75-59.91-7.98v-34.71H240c-.96 14.94-4.67 29.28-10.01 42.69zM240 220.29h-69.92v-26.92c21.84-.24 43.07-3.24 62.59-8.7 3.89 11.37 6.54 23.31 7.33 35.62zM93.1 182.05c19.02 6.2 39.92 9.98 61.66 11.04v27.2H84.84c.85-13.26 3.86-26.09 8.26-38.24zm-23.61 53.56c.96 16.44 4.97 33.32 11.9 50.25-15.24 6.03-29 13.72-40.67 22.86-14.09-21.16-22.83-46.18-24.22-73.12h52.99zm92.93 153.79c89.03 0 161.45-72.43 161.45-161.45 0-42.61-16.6-81.4-43.65-110.29 12.94-21.27 28.5-50.17 28.5-66.18 0-28.39-23.1-51.49-51.49-51.49s-51.49 23.1-51.49 51.49c0 6.07 2.23 13.98 5.71 22.64a160.905 160.905 0 0 0-49.03-7.62c-30.13 0-58.35 8.3-82.51 22.73-7.5-12.6-21.25-21.06-36.95-21.06-23.69 0-42.97 19.28-42.97 42.97 0 11.01 8.81 29.24 17.84 45.03C7.04 177.81.96 202.18.96 227.96c0 89.02 72.42 161.45 161.45 161.45z"/><path class="fil0" d="M42.97 99.4c5.16 0 9.35 4.19 9.35 9.35 0 .46-.04.9-.11 1.35-.59 4.07-3.81 7.29-7.88 7.89-.45.06-.9.11-1.37.11-5.16 0-9.35-4.2-9.35-9.35 0-5.15 4.19-9.35 9.35-9.35zm-7.05 28.36c2.2.81 4.57 1.28 7.05 1.28 11.19 0 20.3-9.1 20.3-20.29 0-2.49-.47-4.87-1.3-7.08-2.88-7.7-10.3-13.21-19-13.21-11.19 0-20.29 9.11-20.29 20.3 0 8.71 5.53 16.14 13.25 19.01zM257.23 35.59c7.13 0 12.93 5.8 12.93 12.93s-5.8 12.93-12.93 12.93-12.92-5.8-12.92-12.93 5.8-12.93 12.92-12.93zm0 36.8c13.16 0 23.87-10.71 23.87-23.87s-10.71-23.87-23.87-23.87-23.87 10.71-23.87 23.87 10.71 23.87 23.87 23.87z"/></g></g></svg>