<svg xmlns="http://www.w3.org/2000/svg" xml:space="preserve" width="97.929" height="93.161" viewBox="0 0 233.08 221.73" shape-rendering="geometricPrecision" text-rendering="geometricPrecision" image-rendering="optimizeQuality" fill-rule="evenodd" clip-rule="evenodd"><defs><style>.str0{stroke:#e31e24;stroke-width:3.17;stroke-miterlimit:22.9256}.fil0{fill:none}</style></defs><g id="Слой_x0020_1"><path class="fil0 str0" d="M22.3 212.46c-11.49 13.58-29.09-.13-16.17-17.52l20.09-27.04c2.89-11.24-2.12-19.75-5.69-36.97-3.57-17.22 4.74-40.43 15.45-54.62 3.23-4.28 25.61-26.58 39.19-.81l13.77 26.15 30.67 9.97c7.89 2.56 2.93 19.96-4.51 18.47L74.66 122l-11.42-15.23-5.32 28.2-4.21 40.34-31.42 37.13z"/><path class="fil0 str0" d="m57.92 134.99 29.79 35.03 2.18 39.59c.62 11.22-18.52 15.79-19.99-.95l-2.8-31.71-12.39-11.15M112.9 109.45c-3.12-10.09 1.76-17.97 12.93-24.09l32.96 101.71m14.64 18.72 57.6-19.04-21.42-59.03-63.39 20.54"/><path class="fil0 str0" d="m197.72 131.58-15.24-48.59-51.96 16.83"/><path class="fil0 str0" d="m146.67 94.59 4.31 13.14 17.22-6.18-4.09-12.61M166.59 141.67l3.51 10.82 17.61-6.19-3.36-10.38M119.87 128.4c4.35 11.64 13.5 10.78 22.62 8.38"/><ellipse class="fil0 str0" cx="80.96" cy="28.96" rx="25.71" ry="27.37"/><path class="fil0 str0" d="m55.48 25.36 65.95 4.31"/><circle class="fil0 str0" cx="157.43" cy="203.59" r="16.56"/></g></svg>