<svg xmlns="http://www.w3.org/2000/svg" xml:space="preserve" width="104.173" height="69.756" viewBox="0 0 83.47 55.89" shape-rendering="geometricPrecision" text-rendering="geometricPrecision" image-rendering="optimizeQuality" fill-rule="evenodd" clip-rule="evenodd"><defs><style>.str0{stroke:#e31e24;stroke-width:2.14;stroke-miterlimit:22.9256}.fil0{fill:none}</style></defs><g id="Слой_x0020_1"><g id="_1859481058768"><ellipse class="fil0 str0" cx="17.73" cy="10.91" rx="9.13" ry="9.84"/><path class="fil0 str0" d="M31.83 9.85H6.19M1.06 53.76l2.56-20.83c1.75-14.19 16.82-11.54 19.42.13 1.89 8.48 5.35 12.09 12.27 13.29 6.92 1.2 7.72 10.89-3.15 7.92-10.87-2.97-13.06-8.76-15.71-12.85M21.65 48.68v6.11"/><ellipse class="fil0 str0" cx="65.74" cy="11.84" rx="9.13" ry="8.9"/><path class="fil0 str0" d="m82.41 53.76-2.56-20.83c-1.75-14.19-16.82-11.54-19.42.13-1.89 8.48-5.35 12.09-12.27 13.29-6.92 1.2-7.72 10.89 3.15 7.92 10.87-2.97 13.06-8.76 15.71-12.85M61.82 48.68v6.11"/><path class="fil0 str0" d="M27.88 43.02V24.08h28.36v17.86"/><path class="fil0 str0" d="M37.01 24.08v7.01h9.61v-7.01"/></g></g></svg>