<svg xmlns="http://www.w3.org/2000/svg" xml:space="preserve" width="101.044" height="61.259" viewBox="0 0 509.83 309.09" shape-rendering="geometricPrecision" text-rendering="geometricPrecision" image-rendering="optimizeQuality" fill-rule="evenodd" clip-rule="evenodd"><defs><style>.str0{stroke:#e31e24;stroke-width:13.46;stroke-miterlimit:22.9256}.fil0{fill:none}</style></defs><g id="Слой_x0020_1"><circle class="fil0 str0" cx="70.82" cy="263.47" r="38.89"/><circle class="fil0 str0" cx="173.46" cy="263.47" r="38.89"/><circle class="fil0 str0" cx="434.15" cy="263.47" r="38.89"/><path class="fil0 str0" d="M31.93 263.47.22 264.52M109.71 263.47h24.85M212.35 263.47h182.91M473.04 263.47h30.06v-76.32c0-10.05-5.05-14.82-16.4-16.4l-57.61-7.99"/><path class="fil0 str0" d="m430.65 162.98.31-48.15c.09-13.85-3.98-19.01-19.01-19.01h-48.44V28.21l-22.7-23.55"/><path class="fil0 str0" d="M363.51 76.15h-21.02V47.56l-62.23-28.17M229.42 38.82v171.04M2.33 21.49h166.92c18.23 0 26.07 8.4 26.07 26.07v135.39c0 15.37-7.9 24.81-24.81 24.81H5.27M195.32 139.22H3.59"/><path class="fil0 str0" d="M282.78 19.39h-40.35c-10.26 0-14.02 5.11-13 19.43M349.65 124.42h58.45v39.52h-58.45zM503.1 200.11h-26.47"/></g></svg>