<svg xmlns="http://www.w3.org/2000/svg" xml:space="preserve" width="111.231" height="74.673" viewBox="0 0 1492.1 1001.7" shape-rendering="geometricPrecision" text-rendering="geometricPrecision" image-rendering="optimizeQuality" fill-rule="evenodd" clip-rule="evenodd"><defs><style>.str0{stroke:#e31e24;stroke-width:35.77;stroke-miterlimit:22.9256}.fil0{fill:none}</style></defs><g id="Слой_x0020_1"><g id="_1859326290944"><path class="fil0 str0" d="m1474.38 954.39-48.63-352.97c-20.76-150.72-271.26-174.85-328.66-46.95L979.71 816.05l-216.3 24.32c-73.69 8.28-86.21 140.27-6.71 140.85l340.39 2.51 134.14-264.94"/><path class="fil0 str0" d="M966.31 715.44 852.29 561.17 594.06 685.26l81.33 140.85M785.21 745.63l-23.47 93.9"/><ellipse class="fil0 str0" cx="1093.75" cy="224.13" rx="184.45" ry="206.25"/><path class="fil0 str0" d="M1301.67 145.32 848.93 299.59M707.2 534.02v-428.3l100.82-.9M625.57 548.42V106.7c-118.62-1.8-225.66 15.01-225.66 76.82v67.22H351.9"/><path class="fil0 str0" d="m409.52 53.89-62.11 75.98 3.36 160.04c-66.57.2-166.57-6.5-158.57 39l1.16 109.52c-106.19.65-183.95 32.19-174.78 60.69l.74 193.33h58.91M275.08 692.46h216.06"/><path class="fil0 str0" d="M246.32 344.24h139.74v103.4H246.32z"/><circle class="fil0 str0" cx="180.92" cy="686.32" r="98.1"/><path class="fil0 str0" d="M23.3 529.25h57.01"/></g></g></svg>