<svg xmlns="http://www.w3.org/2000/svg" xml:space="preserve" width="196.106" height="125.103" viewBox="0 0 3020.51 1926.89" shape-rendering="geometricPrecision" text-rendering="geometricPrecision" image-rendering="optimizeQuality" fill-rule="evenodd" clip-rule="evenodd"><defs><style>.fil0{fill:#2b2a29;fill-rule:nonzero}</style></defs><g id="Слой_x0020_1"><path class="fil0" d="M1510.26 1301.95c-157.93 0-286.42-128.5-286.42-286.44 0-157.93 128.5-286.42 286.42-286.42 157.95 0 286.42 128.5 286.42 286.42 0 157.95-128.48 286.44-286.42 286.44zm215.4 39.06c105.46-70.01 175.18-189.71 175.18-325.5 0-215.39-175.22-390.59-390.58-390.59-215.39 0-390.59 175.2-390.59 390.59 0 135.79 69.72 255.49 175.15 325.5-238.6 88.04-409.52 317.06-409.52 585.87h104.18c0-287.16 233.61-520.79 520.77-520.79 287.18 0 520.79 233.62 520.79 520.79h104.16c0-268.81-170.92-497.83-409.54-585.87z"/><path class="fil0" d="M2246.47 1080.63c105.44-70.03 175.15-189.71 175.15-325.5 0-215.39-175.19-390.59-390.58-390.59-104.35 0-199.04 41.36-269.18 108.25-25.98 24.77-48.4 53.07-66.81 84.14 32.49 13.14 63.42 29.36 92.07 48.79 18.42-29.96 42.1-56.25 69.91-77.59 48.28-37.11 108.51-59.44 174.01-59.44 157.92 0 286.42 128.48 286.42 286.42 0 131.1-88.65 241.66-209.08 275.52-24.64 6.92-50.52 10.9-77.34 10.9-9.22 0-18.3-.54-27.3-1.37-1.85 37.5-7.76 73.87-17.54 108.72 14.89-1.27 29.6-3.18 44.84-3.18 21.15 0 41.89 1.64 62.39 4.11 257.79 30.96 458.39 250.65 458.39 516.65h104.14c0-268.78-170.9-497.8-409.5-585.85zM989.49 1145.71c15.2 0 29.92 1.91 44.79 3.18-9.77-34.85-15.65-71.22-17.52-108.72-8.99.84-18.07 1.37-27.27 1.37-26.84 0-52.72-3.98-77.36-10.9-120.43-33.86-209.08-144.42-209.08-275.52 0-157.95 128.48-286.42 286.44-286.42 65.45 0 125.71 22.33 173.99 59.44 27.8 21.34 51.48 47.62 69.9 77.59 28.65-19.43 59.58-35.66 92.07-48.79-18.38-31.07-40.83-59.37-66.82-84.14-70.14-66.89-164.81-108.25-269.13-108.25-215.41 0-390.6 175.2-390.6 390.59 0 135.79 69.74 255.48 175.15 325.5-238.59 88.04-409.5 317.07-409.5 585.85h104.14c0-266.01 200.6-485.69 458.42-516.65 20.5-2.47 41.22-4.11 62.39-4.11z"/><path class="fil0" d="M2611.01 716.07c105.44-70.01 175.16-189.7 175.16-325.48C2786.17 175.2 2610.97 0 2395.58 0c-104.35 0-199.02 41.36-269.15 108.25-26 24.76-48.42 53.09-66.82 84.14 32.49 13.14 63.41 29.37 92.07 48.79 18.42-29.96 42.1-56.25 69.9-77.59 48.28-37.11 108.52-59.45 174.01-59.45 157.93 0 286.42 128.5 286.42 286.45 0 115.41-68.76 214.75-167.37 260.01 4.4 24.71 7.1 49.98 7.1 75.92 0 23.68-2.54 46.7-6.22 69.35 229.42 54.36 400.85 260.26 400.85 506.08h104.14c0-268.8-170.9-497.83-409.5-585.89zM498.77 726.52c0-25.94 2.71-51.22 7.08-75.92C407.25 605.34 338.5 506 338.5 390.59c0-157.95 128.48-286.45 286.42-286.45 65.47 0 125.71 22.34 174.01 59.45 27.79 21.34 51.48 47.62 69.91 77.59 28.65-19.43 59.58-35.65 92.07-48.79-18.38-31.05-40.85-59.37-66.83-84.14C823.95 41.36 729.28 0 624.93 0 409.56 0 234.34 175.19 234.34 390.59c0 135.78 69.72 255.47 175.18 325.48C170.91 804.13 0 1033.16 0 1301.96h104.14c0-245.82 171.42-451.72 400.85-506.08-3.68-22.65-6.22-45.67-6.22-69.35zM1510.26 104.14c139.25 0 254.38 100.38 279.91 232.29 57.03-34.38 98.19-42.08 98.19-42.08C1845.33 125.44 1692.38 0 1510.26 0c-182.12 0-335.06 125.43-378.1 294.35 0 0 41.15 7.7 98.16 42.08 25.55-131.91 140.68-232.29 279.94-232.29z"/></g></svg>