<svg xmlns="http://www.w3.org/2000/svg" xml:space="preserve" width="92.649" height="94.171" viewBox="0 0 495.47 503.62" shape-rendering="geometricPrecision" text-rendering="geometricPrecision" image-rendering="optimizeQuality" fill-rule="evenodd" clip-rule="evenodd"><path d="M289.07 470.75 223.69 369.7c4.83-2.23 9.29-4.33 12.91-6.06l64.89 101.48-12.42 5.63zm-86.27 9.89c-5.23-2.3-21.12-10.26-42.28-30.1-43.68-40.95-75.68-99.91-94.83-142.17-32.04-70.69-40.75-126.83-42.41-161.47-1.43-29.88 2-49.34 3.46-56.07l41.21-41.1 32.59 109.58c-1.85.91-3.66 1.8-5.38 2.68a28.3 28.3 0 0 0-2.97 1.76c-7.17 4.83-15.6 15.38-15.05 38.26.28 11.87 2.86 22.12 2.97 22.55.16.65.39 1.29.66 1.9l56.25 124.09c.28.61.61 1.2.99 1.75 2.25 3.27 22.65 31.96 46.29 31.96a28.747 28.747 0 0 0 10.68-2.04c2.42-.96 4.98-2.02 7.59-3.13l62.96 97.32-62.74 4.22zM103 27.27l33.56 115.69c-4.2 1.8-9.47 4.1-15.11 6.62L87.2 34.43l15.8-7.16zm147.39 315.54c-3.12-4.9-9.44-6.66-14.65-4.11-.29.15-29.72 14.56-49.21 22.32-.21.09-.44.16-.66.22-.49.13-1.01.19-1.57.19-8.09 0-20.58-12.42-26.93-21.28L102 218.02c-2.9-12.39-3.49-31.01 2.93-35.33.19-.13.39-.25.61-.36 3.62-1.85 7.67-3.81 11.86-5.78l.16-.03c1.18-.36 2.25-.89 3.22-1.55 16.48-7.63 33.75-14.85 33.98-14.94 5.35-2.24 8.19-8.14 6.57-13.72L121.27 8.23c-.92-3.19-3.18-5.81-6.19-7.2-3.01-1.38-6.47-1.4-9.49-.03L68.71 17.72c-.05.02-.09.06-.15.08-.56.26-1.09.56-1.6.9-.03.03-.06.05-.08.07-.54.38-1.05.79-1.51 1.26l-.04.05L8.34 76.91a11.238 11.238 0 0 0-2.9 4.9c-1.08 3.7-25.63 92.4 39.45 235.97 70.96 156.56 149.19 184.14 152.49 185.24 1.16.39 2.38.58 3.61.58.25 0 .51 0 .76-.02l80.37-5.41c1.36-.09 2.7-.43 3.94-1l.85-.38c1.51-.25 2.98-.79 4.34-1.67.38-.24.73-.51 1.06-.79l30.62-13.88a11.414 11.414 0 0 0 4.9-16.55l-77.44-121.13zm12.45-228.91c4.08-6.05 7.48-11.87 10.18-17.48 2.71-5.6 4.73-11.19 6.07-16.75 1.34-5.57 2-11.47 2-17.71 0-13.73-3.69-24.45-11.07-32.17-7.39-7.72-17.65-11.58-30.78-11.58-7.79 0-15.03 1.63-21.7 4.91-6.68 3.26-13.92 9.31-21.71 18.14l16.92 17.81c4.9-5.42 9.06-9.16 12.47-11.24 3.42-2.08 7.09-3.12 11.02-3.12 4.45 0 8.06 1.56 10.85 4.68 2.78 3.12 4.17 7.79 4.17 14.03 0 5.35-.71 10.52-2.11 15.53-1.41 5.01-3.6 10.24-6.58 15.7-2.97 5.45-8.42 13.82-16.36 25.1l-28.95 40.97v22.6h87.28v-26.94h-53.32v-.89c17-21.68 27.53-35.53 31.62-41.59zm89.5-39.24-.56 15.14v34.29h-27.61l19.59-41.97c3.05-6.53 5.86-13.84 8.46-21.93h.89l-.78 14.48zm-4.45-54.11-49.21 103.98v24.61h53.1v34.18h28.5v-34.18h16.48v-25.05h-16.48V20.56h-32.39zM231.44 258.19V203h-10.27v21.93h-13.55V203h-10.27v55.19h10.27V234h13.55v24.19h10.27zm27.9-8.34c-3.07 0-5.4-1.65-6.98-4.94-1.58-3.3-2.38-8.1-2.38-14.38 0-6.32.8-11.12 2.38-14.41 1.58-3.29 3.94-4.93 7.06-4.93 6.14 0 9.21 6.45 9.21 19.33 0 12.88-3.09 19.32-9.29 19.32zm.08-47.71c-6.45 0-11.37 2.43-14.8 7.3-3.42 4.87-5.13 11.87-5.13 21 0 9.21 1.71 16.27 5.13 21.16 3.42 4.9 8.33 7.34 14.72 7.34 6.37 0 11.27-2.45 14.69-7.36s5.13-11.93 5.13-21.06c0-9.14-1.7-16.15-5.1-21.05-3.4-4.89-8.28-7.34-14.65-7.34zm27.55.86v35.56c0 6.72 1.44 11.8 4.31 15.23 2.87 3.44 7.04 5.15 12.54 5.15 5.61 0 9.9-1.73 12.87-5.19 2.97-3.46 4.45-8.47 4.45-15.05v-35.71h-10.19v36.54c0 3.29-.59 5.84-1.77 7.62-1.18 1.79-2.85 2.68-5.02 2.68-4.65 0-6.98-3.51-6.98-10.53v-36.32h-10.2zm61.8 22.82c-1.06 1.37-2.8 2.06-5.21 2.06h-2.64v-16.01h2.56c2.34 0 4.07.6 5.19 1.8 1.12 1.19 1.68 3.2 1.68 6.02 0 2.72-.53 4.76-1.58 6.14zm15.51 32.36-10.6-24.19c4.71-2.78 7.06-7.64 7.06-14.61 0-5.54-1.35-9.65-4.06-12.34-2.71-2.69-6.9-4.04-12.59-4.04h-13.44v55.19h10.27v-21.47h3.66l8.72 21.47h10.98zm14.08-8.19c-3.44 0-7.23-1.34-11.36-4.04v10.15c3.37 1.89 7.46 2.83 12.26 2.83 4.91 0 8.66-1.37 11.26-4.11 2.61-2.75 3.91-6.7 3.91-11.85 0-3.22-.71-6.09-2.13-8.61-1.42-2.52-3.93-4.98-7.53-7.4-2.67-1.76-4.54-3.34-5.6-4.72-1.07-1.38-1.6-3.01-1.6-4.87 0-1.88.45-3.37 1.34-4.47.89-1.1 2.17-1.64 3.83-1.64 1.51 0 2.93.28 4.25.83 1.32.55 2.58 1.18 3.79 1.89l3.39-8.23c-3.9-2.37-7.96-3.55-12.19-3.55-4.43 0-7.96 1.38-10.59 4.16-2.62 2.77-3.94 6.52-3.94 11.24 0 2.47.34 4.63 1 6.5.66 1.86 1.6 3.53 2.82 5.03 1.23 1.5 3.02 3.07 5.38 4.7 2.72 1.87 4.67 3.56 5.85 5.08 1.18 1.52 1.77 3.2 1.77 5.03 0 1.86-.49 3.34-1.49 4.42-.99 1.08-2.47 1.62-4.43 1.62zm117.12 1.11c0-61.96-28.27-120.74-75.6-157.21-4.99-3.85-12.16-2.92-16.01 2.07-3.85 5-2.92 12.17 2.08 16.02 41.76 32.18 66.7 84.19 66.7 139.12 0 64.13-33.16 122.12-85.55 151.62l19.69-41.76c2.69-5.7.24-12.51-5.46-15.2-5.71-2.69-12.51-.24-15.2 5.46l-32.3 68.53a11.39 11.39 0 0 0 .14 10.01c1.58 3.15 4.53 5.38 7.98 6.06l79.29 15.66c.75.15 1.49.22 2.23.22 5.34 0 10.12-3.77 11.19-9.21 1.23-6.18-2.8-12.19-8.98-13.42l-43.6-8.61c57.34-34.12 93.42-98.48 93.42-169.36z" fill="#272624" fill-rule="nonzero"/></svg>