<svg xmlns="http://www.w3.org/2000/svg" xml:space="preserve" width="95.288" height="95.829" viewBox="0 0 725.57 729.69" shape-rendering="geometricPrecision" text-rendering="geometricPrecision" image-rendering="optimizeQuality" fill-rule="evenodd" clip-rule="evenodd"><path d="M62.55 2.86c-10.37.32-19.86 2.79-28.13 7.17-8.28 4.37-15.35 10.65-20.89 18.57-5.54 7.92-9.55 17.49-11.7 28.44-2.16 10.95-2.46 23.3-.59 36.77C56.6 492.39 255.73 683.94 631.44 729.4c28.87 3.49 81.76-25.36 85.13-63.35l8.6-96.85c5.62-63.3-47.79-75.19-116.61-77.74l-69.89-2.59c-12.2-.45-28.17 7.42-36.87 15.18l-86.5 77.17c-142.65-65.34-214.49-157.65-269.79-271.51l78.18-74.25c10.94-10.39 21.56-30.22 19.8-43.63l-16.8-127.66C224.34 25 201.48 3.65 155.98.01L62.56 2.87z" fill="#2b2a29"/></svg>