<svg xmlns="http://www.w3.org/2000/svg" xml:space="preserve" width="104.03" height="81.173" viewBox="0 0 207.52 161.92" shape-rendering="geometricPrecision" text-rendering="geometricPrecision" image-rendering="optimizeQuality" fill-rule="evenodd" clip-rule="evenodd"><defs><style>.str0{stroke:#e31e24;stroke-width:5.32;stroke-miterlimit:22.9256}.fil0{fill:none}</style></defs><g id="Слой_x0020_1"><g id="_1190547560288"><path class="fil0 str0" d="m2.63 154.89 7.23-52.49c3.09-22.41 40.34-26 48.87-6.98l17.46 38.9 32.17 3.62c10.96 1.23 12.82 20.86 1 20.95l-50.62.37-19.95-39.4"/><path class="fil0 str0" d="m78.19 119.36 16.95-22.95 38.4 18.46-12.09 20.94M105.12 123.84l3.49 13.97"/><ellipse class="fil0 str0" cx="59.24" cy="46.3" rx="27.43" ry="30.67"/><path class="fil0 str0" d="m28.32 34.58 67.32 22.94M103.12 84.45V2.66h101.74v110.71h-5.8l.31 15.96h-22.32l.19-15.46h-32.41"/><path class="fil0 str0" d="M190.89 94.42h-76.3V13.63h76.3zM114.59 30.09h76.3"/><path class="fil0 str0" d="M125.56 94.42V43.05h22.94v21.94m5.84-.27-.03 1.73-.45 27.97"/><path class="fil0 str0" d="M180.42 94.42V69.49h-26.55M177.24 113.87h7.73M154.56 65.48l-29.41-.03"/></g></g></svg>