<svg xmlns="http://www.w3.org/2000/svg" xml:space="preserve" width="190.588" height="130.634" viewBox="0 0 546 374.24" shape-rendering="geometricPrecision" text-rendering="geometricPrecision" image-rendering="optimizeQuality" fill-rule="evenodd" clip-rule="evenodd"><defs><style>.str0{stroke:#e31e24;stroke-width:15.28;stroke-miterlimit:22.9256}.fil0{fill:none}</style></defs><g id="Слой_x0020_1"><g id="_1190546362448"><path class="fil0 str0" d="M48.04 135.15V366.6M28.59 366.6h483.74M499.89 366.6V135.62M90.81 366.6V185.03l265.98.93V366.6M394.12 366.6V252.28h69.99V366.6M90.81 237.5h265.98"/><path class="fil0 str0" d="M121.14 366.6v-63.77h56.77v63.77M177.91 321.49h44.34v45.11M268.91 368.16v-58.33h52.11v56.77M27.13 144.38 9.93 99.07l251.94-87.92L272.9 7.3M25.3 143.36l247.5-89.4M236.24 146.51h68.44c3.68-48.64-72.62-41.63-68.44 0z"/><path class="fil0 str0" d="m518.86 144.27 17.21-45.31L272.23 7.7l-1.38-.48M518.35 143.25l-247.5-89.4"/></g></g></svg>