<svg xmlns="http://www.w3.org/2000/svg" xml:space="preserve" width="104.03" height="81.173" viewBox="0 0 198.34 154.76" shape-rendering="geometricPrecision" text-rendering="geometricPrecision" image-rendering="optimizeQuality" fill-rule="evenodd" clip-rule="evenodd"><defs><style>.str0{stroke:#e31e24;stroke-width:5.08;stroke-miterlimit:22.9256}.fil0{fill:none}</style></defs><g id="Слой_x0020_1"><g id="_1859473485488"><path class="fil0 str0" d="m2.52 148.03 6.91-50.17c2.95-21.42 38.55-24.85 46.71-6.67l16.68 37.18 30.74 3.46c10.47 1.18 12.25 19.94.95 20.02l-48.38.36-19.07-37.65"/><path class="fil0 str0" d="m74.73 114.07 16.2-21.92 36.7 17.63-11.55 20.02M100.47 118.36l3.33 13.35"/><ellipse class="fil0 str0" cx="56.62" cy="44.25" rx="26.21" ry="29.31"/><path class="fil0 str0" d="m27.06 33.05 64.35 21.92M98.56 80.71V2.54h97.23v105.81h-5.54l.3 15.26h-21.33l.18-14.78h-30.98"/><path class="fil0 str0" d="M181.98 89.77h-72.93V12.56h72.93zM169.4 108.83h7.39"/><path class="fil0 str0" d="M147.06 65.69h25.37v23.83h-25.37zM119.55 58.17h27.51v31.36h-27.51zM119.55 36.46h17.96v21.71h-17.96z"/></g></g></svg>