<svg xmlns="http://www.w3.org/2000/svg" xml:space="preserve" width="133.932" height="91.929" viewBox="0 0 1422.82 976.61" shape-rendering="geometricPrecision" text-rendering="geometricPrecision" image-rendering="optimizeQuality" fill-rule="evenodd" clip-rule="evenodd"><defs><style>.fil0{fill:#272624;fill-rule:nonzero}</style></defs><g id="Слой_x0020_1"><g id="_1985825852240"><path class="fil0" d="M360.61 931.24c-57.32 0-103.96-46.63-103.96-103.96 0-57.32 46.64-103.97 103.96-103.97 57.34 0 103.97 46.64 103.97 103.97 0 57.34-46.63 103.96-103.97 103.96zm0-253.29c-82.34 0-149.34 66.99-149.34 149.32 0 82.35 67 149.34 149.34 149.34 82.36 0 149.34-66.99 149.34-149.34 0-82.34-66.99-149.32-149.34-149.32z"/><path class="fil0" d="M360.61 764.89c-34.45 0-62.38 27.93-62.38 62.38 0 82.05 124.76 82.05 124.76 0 0-34.45-27.93-62.38-62.38-62.38zM1124.06 931.24c-57.32 0-103.97-46.63-103.97-103.96 0-57.32 46.64-103.97 103.97-103.97 57.34 0 103.98 46.64 103.98 103.97 0 57.34-46.64 103.96-103.98 103.96zm0-253.29c-82.34 0-149.32 66.99-149.32 149.32 0 82.35 66.99 149.34 149.32 149.34 82.35 0 149.34-66.99 149.34-149.34 0-82.34-66.99-149.32-149.34-149.32z"/><path class="fil0" d="M1124.06 764.89c-34.45 0-62.38 27.93-62.38 62.38 0 34.46 27.93 62.38 62.38 62.38 34.46 0 62.38-27.92 62.38-62.38 0-34.45-27.92-62.38-62.38-62.38z"/><path class="fil0" d="M1377.45 742.2h-62.21c-33.41-74.92-108.32-124.21-191.18-124.21-82.85 0-157.75 49.29-191.17 124.21H551.77c-33.41-74.92-108.3-124.21-191.17-124.21-82.86 0-157.75 49.29-191.16 124.21h-62V601.87h1270V742.2zM45.37 553.98v-32.07h868.08v32.07H45.37zm0-508.61h868.08v33.87H45.37V45.37zm807.6 66.26h60.48V489.5h-60.48V111.63zm-90.13 0h60.98V489.5h-60.98V111.63zm-90.14 0h60.98V489.5H672.7V111.63zm-90.14 0h60.98V489.5h-60.98V111.63zm-90.13 0h60.97V489.5h-60.97V111.63zm-90.14 0h60.98V489.5h-60.98V111.63zm-90.14 0h60.98V489.5h-60.98V111.63zm-90.14 0h60.98V489.5h-60.98V111.63zm-90.13 0h60.98V489.5h-60.98V111.63zm-86.49 0h57.32V489.5H45.39V111.63zm913.79 80.54h176.51c47.62 46.36 111.42 162.78 112.08 164 2.47 4.52 6.4 8.07 11.15 10.06l118.56 49.69v140.6h-418.3V192.18zm449.74 187.74-125.22-52.48c-15.96-28.47-76.62-133.66-124.29-175.06a22.652 22.652 0 0 0-14.87-5.57h-185.7V22.69C958.84 10.15 948.68 0 936.16 0H22.7C10.18 0 .02 10.16.02 22.69v553.96c0 12.52 10.15 22.68 22.68 22.68h39.4v165.54c0 12.52 10.15 22.68 22.69 22.68h100c9.6 0 18.16-6.03 21.37-15.07 23.23-65.27 85.31-109.12 154.46-109.12 69.17 0 131.24 43.85 154.47 109.12a22.694 22.694 0 0 0 21.37 15.07h411.78c9.59 0 18.14-6.03 21.36-15.07 23.24-65.27 85.31-109.12 154.47-109.12 69.17 0 131.23 43.85 154.48 109.12 3.21 9.04 11.77 15.07 21.36 15.07h100.23c12.54 0 22.69-10.16 22.69-22.68V400.82c0-9.13-5.5-17.39-13.92-20.92z"/><path class="fil0" d="M1106.26 231.28H986.78v141.66h220.56l-1.19-2.01c-24.7-41.46-67.76-104.94-99.89-139.65zM1018.89 452.93h71.81v-26.12h-71.81z"/></g></g></svg>