<svg xmlns="http://www.w3.org/2000/svg" xml:space="preserve" width="16" height="16" viewBox="0 0 423.34 423.34" shape-rendering="geometricPrecision" text-rendering="geometricPrecision" image-rendering="optimizeQuality" fill-rule="evenodd" clip-rule="evenodd"><g fill-rule="nonzero"><path d="M105.84 0H317.5c58.44.01 105.83 47.4 105.83 105.84l.01 211.66c-.01 58.43-47.4 105.82-105.84 105.82l-211.66.02C47.41 423.32.02 375.93.02 317.49L0 105.84C.02 47.4 47.41.01 105.85.01z" fill="#eee"/><path d="M174.2 222.77v-25.61h65.83v60.47c-6.39 6.24-15.67 11.71-27.84 16.47-12.13 4.73-24.45 7.09-36.93 7.09-15.84 0-29.64-3.31-41.42-9.98-11.75-6.67-20.6-16.23-26.53-28.61-5.93-12.39-8.89-25.9-8.89-40.47 0-15.8 3.32-29.84 9.91-42.15 6.64-12.28 16.3-21.74 29.04-28.3 9.73-5.04 21.8-7.55 36.26-7.55 18.81 0 33.52 3.95 44.1 11.86 10.55 7.93 17.36 18.83 20.39 32.8l-30.48 5.72c-2.11-7.44-6.14-13.34-12.03-17.67-5.85-4.31-13.19-6.46-22.01-6.46-13.34 0-23.96 4.23-31.82 12.74-7.87 8.5-11.82 21.09-11.82 37.78 0 18.03 3.99 31.54 11.96 40.53 8.01 9 18.45 13.51 31.4 13.51 6.38 0 12.8-1.27 19.22-3.77 6.46-2.5 11.96-5.57 16.58-9.17v-19.23H174.2zm121.67 55.67h-29V168.58h26.88v15.6c4.62-7.38 8.79-12.21 12.49-14.5 3.71-2.3 7.9-3.43 12.6-3.43 6.63 0 13.01 1.84 19.15 5.47L329 197.05c-4.91-3.17-9.46-4.76-13.66-4.76-4.09 0-7.55 1.13-10.37 3.35-2.82 2.26-5.04 6.28-6.67 12.14-1.62 5.85-2.43 18.13-2.43 36.79v33.87z" fill="#2b2a29"/></g></svg>